<mxfile host="app.diagrams.net" modified="2022-02-28T11:32:04.174Z" agent="5.0 (Windows NT 10.0; Win64; x64) AppleWebKit/537.36 (KHTML, like Gecko) Chrome/98.0.4758.102 Safari/537.36 Edg/98.0.1108.62" etag="Xd-ID6yrHbvdrh8gsjml" version="16.6.4" type="github">
  <diagram id="WoFl2ZYh4m5NvbcfHuhJ" name="Page-1">
    <mxGraphModel dx="1221" dy="644" grid="1" gridSize="10" guides="1" tooltips="1" connect="1" arrows="1" fold="1" page="1" pageScale="1" pageWidth="850" pageHeight="1800" math="0" shadow="0">
      <root>
        <mxCell id="0" />
        <mxCell id="1" parent="0" />
        <mxCell id="Ko_cZbUgDAaaJvn7NovW-1" value="" style="ellipse;whiteSpace=wrap;html=1;aspect=fixed;" parent="1" vertex="1">
          <mxGeometry x="390" y="60" width="80" height="80" as="geometry" />
        </mxCell>
        <mxCell id="Ko_cZbUgDAaaJvn7NovW-3" value="Submit" style="rounded=1;whiteSpace=wrap;html=1;" parent="1" vertex="1">
          <mxGeometry x="370" y="480" width="120" height="60" as="geometry" />
        </mxCell>
        <mxCell id="Ko_cZbUgDAaaJvn7NovW-17" value="" style="endArrow=classic;html=1;rounded=0;" parent="1" edge="1">
          <mxGeometry width="50" height="50" relative="1" as="geometry">
            <mxPoint x="429.41" y="540" as="sourcePoint" />
            <mxPoint x="429.41" y="580" as="targetPoint" />
          </mxGeometry>
        </mxCell>
        <mxCell id="Ko_cZbUgDAaaJvn7NovW-18" value="" style="endArrow=classic;html=1;rounded=0;" parent="1" edge="1">
          <mxGeometry width="50" height="50" relative="1" as="geometry">
            <mxPoint x="429.41" y="440" as="sourcePoint" />
            <mxPoint x="429.41" y="480" as="targetPoint" />
          </mxGeometry>
        </mxCell>
        <mxCell id="Ko_cZbUgDAaaJvn7NovW-21" value="Student&lt;br&gt;with INC" style="text;html=1;align=center;verticalAlign=middle;resizable=0;points=[];autosize=1;strokeColor=none;fillColor=none;" parent="1" vertex="1">
          <mxGeometry x="400" y="85" width="60" height="30" as="geometry" />
        </mxCell>
        <mxCell id="Ko_cZbUgDAaaJvn7NovW-26" value="Apply Override" style="rounded=1;whiteSpace=wrap;html=1;" parent="1" vertex="1">
          <mxGeometry x="370" y="180" width="120" height="60" as="geometry" />
        </mxCell>
        <mxCell id="Ko_cZbUgDAaaJvn7NovW-31" value="" style="endArrow=classic;html=1;rounded=0;" parent="1" edge="1">
          <mxGeometry width="50" height="50" relative="1" as="geometry">
            <mxPoint x="429.4100000000001" y="140" as="sourcePoint" />
            <mxPoint x="429.4100000000001" y="180" as="targetPoint" />
          </mxGeometry>
        </mxCell>
        <mxCell id="Ko_cZbUgDAaaJvn7NovW-32" value="" style="endArrow=classic;html=1;rounded=0;" parent="1" edge="1">
          <mxGeometry width="50" height="50" relative="1" as="geometry">
            <mxPoint x="429.41" y="240" as="sourcePoint" />
            <mxPoint x="429.4100000000001" y="280" as="targetPoint" />
          </mxGeometry>
        </mxCell>
        <mxCell id="Ko_cZbUgDAaaJvn7NovW-33" value="Select the course&lt;br&gt;that would like&lt;br&gt;to enroll" style="rounded=1;whiteSpace=wrap;html=1;" parent="1" vertex="1">
          <mxGeometry x="370" y="280" width="120" height="60" as="geometry" />
        </mxCell>
        <mxCell id="Ko_cZbUgDAaaJvn7NovW-34" value="" style="endArrow=classic;html=1;rounded=0;" parent="1" edge="1">
          <mxGeometry width="50" height="50" relative="1" as="geometry">
            <mxPoint x="429.4100000000001" y="340" as="sourcePoint" />
            <mxPoint x="429.4100000000001" y="380" as="targetPoint" />
          </mxGeometry>
        </mxCell>
        <mxCell id="Ko_cZbUgDAaaJvn7NovW-35" value="Input the reason&lt;br&gt;for override" style="rounded=1;whiteSpace=wrap;html=1;" parent="1" vertex="1">
          <mxGeometry x="370" y="380" width="120" height="60" as="geometry" />
        </mxCell>
        <mxCell id="Ko_cZbUgDAaaJvn7NovW-37" value="" style="endArrow=classic;html=1;rounded=0;" parent="1" edge="1">
          <mxGeometry width="50" height="50" relative="1" as="geometry">
            <mxPoint x="429.50000000000006" y="1200" as="sourcePoint" />
            <mxPoint x="429.50000000000006" y="1239.9999999999998" as="targetPoint" />
          </mxGeometry>
        </mxCell>
        <mxCell id="Ko_cZbUgDAaaJvn7NovW-43" value="VPAA Evaluate&lt;br&gt;Request" style="rounded=1;whiteSpace=wrap;html=1;" parent="1" vertex="1">
          <mxGeometry x="370" y="1020" width="120" height="60" as="geometry" />
        </mxCell>
        <mxCell id="Ko_cZbUgDAaaJvn7NovW-44" value="Dean Evaluate&lt;br&gt;Request" style="rounded=1;whiteSpace=wrap;html=1;" parent="1" vertex="1">
          <mxGeometry x="370" y="800" width="120" height="60" as="geometry" />
        </mxCell>
        <mxCell id="Ko_cZbUgDAaaJvn7NovW-45" value="Chair Evaluate&lt;br&gt;Request" style="rounded=1;whiteSpace=wrap;html=1;" parent="1" vertex="1">
          <mxGeometry x="370" y="580" width="120" height="60" as="geometry" />
        </mxCell>
        <mxCell id="Ko_cZbUgDAaaJvn7NovW-58" value="" style="endArrow=classic;html=1;rounded=0;" parent="1" edge="1">
          <mxGeometry width="50" height="50" relative="1" as="geometry">
            <mxPoint x="429.4100000000001" y="639.9999999999998" as="sourcePoint" />
            <mxPoint x="429.4100000000001" y="679.9999999999998" as="targetPoint" />
          </mxGeometry>
        </mxCell>
        <mxCell id="Ko_cZbUgDAaaJvn7NovW-59" value="Approve?" style="rhombus;whiteSpace=wrap;html=1;" parent="1" vertex="1">
          <mxGeometry x="390" y="680" width="80" height="80" as="geometry" />
        </mxCell>
        <mxCell id="Ko_cZbUgDAaaJvn7NovW-61" value="" style="endArrow=classic;html=1;rounded=0;" parent="1" edge="1">
          <mxGeometry width="50" height="50" relative="1" as="geometry">
            <mxPoint x="429.4100000000001" y="759.9999999999998" as="sourcePoint" />
            <mxPoint x="429.4100000000001" y="799.9999999999998" as="targetPoint" />
          </mxGeometry>
        </mxCell>
        <mxCell id="Ko_cZbUgDAaaJvn7NovW-62" value="No" style="text;html=1;align=center;verticalAlign=middle;resizable=0;points=[];autosize=1;strokeColor=none;fillColor=none;" parent="1" vertex="1">
          <mxGeometry x="480" y="700" width="30" height="20" as="geometry" />
        </mxCell>
        <mxCell id="Ko_cZbUgDAaaJvn7NovW-63" value="Yes" style="text;html=1;align=center;verticalAlign=middle;resizable=0;points=[];autosize=1;strokeColor=none;fillColor=none;" parent="1" vertex="1">
          <mxGeometry x="440" y="760" width="30" height="20" as="geometry" />
        </mxCell>
        <mxCell id="Ko_cZbUgDAaaJvn7NovW-64" value="" style="endArrow=classic;html=1;rounded=0;" parent="1" edge="1">
          <mxGeometry width="50" height="50" relative="1" as="geometry">
            <mxPoint x="429.4100000000001" y="859.9999999999998" as="sourcePoint" />
            <mxPoint x="429.4100000000001" y="899.9999999999998" as="targetPoint" />
          </mxGeometry>
        </mxCell>
        <mxCell id="Ko_cZbUgDAaaJvn7NovW-65" value="Approve?" style="rhombus;whiteSpace=wrap;html=1;" parent="1" vertex="1">
          <mxGeometry x="390" y="900" width="80" height="80" as="geometry" />
        </mxCell>
        <mxCell id="Ko_cZbUgDAaaJvn7NovW-75" value="No" style="text;html=1;align=center;verticalAlign=middle;resizable=0;points=[];autosize=1;strokeColor=none;fillColor=none;" parent="1" vertex="1">
          <mxGeometry x="480" y="920" width="30" height="20" as="geometry" />
        </mxCell>
        <mxCell id="Ko_cZbUgDAaaJvn7NovW-76" value="" style="endArrow=classic;html=1;rounded=0;" parent="1" edge="1">
          <mxGeometry width="50" height="50" relative="1" as="geometry">
            <mxPoint x="429.4100000000001" y="979.9999999999998" as="sourcePoint" />
            <mxPoint x="429.4100000000001" y="1019.9999999999998" as="targetPoint" />
          </mxGeometry>
        </mxCell>
        <mxCell id="Ko_cZbUgDAaaJvn7NovW-77" value="Yes" style="text;html=1;align=center;verticalAlign=middle;resizable=0;points=[];autosize=1;strokeColor=none;fillColor=none;" parent="1" vertex="1">
          <mxGeometry x="440" y="980" width="30" height="20" as="geometry" />
        </mxCell>
        <mxCell id="Ko_cZbUgDAaaJvn7NovW-78" value="Provide a note" style="rounded=1;whiteSpace=wrap;html=1;" parent="1" vertex="1">
          <mxGeometry x="590" y="1130" width="120" height="60" as="geometry" />
        </mxCell>
        <mxCell id="Ko_cZbUgDAaaJvn7NovW-80" value="" style="endArrow=classic;html=1;rounded=0;entryX=0.5;entryY=0;entryDx=0;entryDy=0;" parent="1" edge="1">
          <mxGeometry width="50" height="50" relative="1" as="geometry">
            <mxPoint x="649.4100000000001" y="1189.9999999999998" as="sourcePoint" />
            <mxPoint x="650" y="1230" as="targetPoint" />
          </mxGeometry>
        </mxCell>
        <mxCell id="Ko_cZbUgDAaaJvn7NovW-81" value="" style="endArrow=classic;html=1;rounded=0;entryX=0;entryY=0.5;entryDx=0;entryDy=0;" parent="1" target="Ko_cZbUgDAaaJvn7NovW-78" edge="1">
          <mxGeometry width="50" height="50" relative="1" as="geometry">
            <mxPoint x="465" y="1159.9999999999998" as="sourcePoint" />
            <mxPoint x="515" y="1160" as="targetPoint" />
          </mxGeometry>
        </mxCell>
        <mxCell id="Ko_cZbUgDAaaJvn7NovW-82" value="No" style="text;html=1;align=center;verticalAlign=middle;resizable=0;points=[];autosize=1;strokeColor=none;fillColor=none;" parent="1" vertex="1">
          <mxGeometry x="475" y="1140" width="30" height="20" as="geometry" />
        </mxCell>
        <mxCell id="Ko_cZbUgDAaaJvn7NovW-83" value="Approve?" style="rhombus;whiteSpace=wrap;html=1;" parent="1" vertex="1">
          <mxGeometry x="390" y="1120" width="80" height="80" as="geometry" />
        </mxCell>
        <mxCell id="Ko_cZbUgDAaaJvn7NovW-84" value="" style="endArrow=classic;html=1;rounded=0;" parent="1" edge="1">
          <mxGeometry width="50" height="50" relative="1" as="geometry">
            <mxPoint x="429.50000000000006" y="1079.9999999999998" as="sourcePoint" />
            <mxPoint x="429.50000000000006" y="1119.9999999999998" as="targetPoint" />
          </mxGeometry>
        </mxCell>
        <mxCell id="Ko_cZbUgDAaaJvn7NovW-85" value="Yes" style="text;html=1;align=center;verticalAlign=middle;resizable=0;points=[];autosize=1;strokeColor=none;fillColor=none;" parent="1" vertex="1">
          <mxGeometry x="435" y="1200" width="30" height="20" as="geometry" />
        </mxCell>
        <mxCell id="Ko_cZbUgDAaaJvn7NovW-86" value="" style="endArrow=none;html=1;rounded=0;" parent="1" edge="1">
          <mxGeometry width="50" height="50" relative="1" as="geometry">
            <mxPoint x="470" y="720" as="sourcePoint" />
            <mxPoint x="650" y="720" as="targetPoint" />
          </mxGeometry>
        </mxCell>
        <mxCell id="Ko_cZbUgDAaaJvn7NovW-87" value="" style="endArrow=none;html=1;rounded=0;" parent="1" edge="1">
          <mxGeometry width="50" height="50" relative="1" as="geometry">
            <mxPoint x="470" y="939.4099999999999" as="sourcePoint" />
            <mxPoint x="650" y="939" as="targetPoint" />
          </mxGeometry>
        </mxCell>
        <mxCell id="Ko_cZbUgDAaaJvn7NovW-89" value="Approved" style="rounded=1;whiteSpace=wrap;html=1;" parent="1" vertex="1">
          <mxGeometry x="370" y="1240" width="120" height="60" as="geometry" />
        </mxCell>
        <mxCell id="Ko_cZbUgDAaaJvn7NovW-91" value="" style="endArrow=classic;html=1;rounded=0;" parent="1" edge="1">
          <mxGeometry width="50" height="50" relative="1" as="geometry">
            <mxPoint x="429.50000000000006" y="1299.9999999999998" as="sourcePoint" />
            <mxPoint x="429.50000000000006" y="1339.9999999999998" as="targetPoint" />
          </mxGeometry>
        </mxCell>
        <mxCell id="sB4tUdDSAnDEVP0AERKt-1" value="" style="endArrow=classic;html=1;rounded=0;entryX=0.5;entryY=0;entryDx=0;entryDy=0;" parent="1" target="Ko_cZbUgDAaaJvn7NovW-78" edge="1">
          <mxGeometry width="50" height="50" relative="1" as="geometry">
            <mxPoint x="650" y="720" as="sourcePoint" />
            <mxPoint x="710" y="915" as="targetPoint" />
          </mxGeometry>
        </mxCell>
        <mxCell id="Eaa78CnwqytOTovNMyEG-2" value="Registrar&lt;br&gt;will encode the study load" style="rounded=1;whiteSpace=wrap;html=1;" vertex="1" parent="1">
          <mxGeometry x="370" y="1340" width="120" height="60" as="geometry" />
        </mxCell>
        <mxCell id="Eaa78CnwqytOTovNMyEG-4" value="" style="endArrow=classic;html=1;rounded=0;" edge="1" parent="1">
          <mxGeometry width="50" height="50" relative="1" as="geometry">
            <mxPoint x="370.0000000000001" y="509.4999999999998" as="sourcePoint" />
            <mxPoint x="291" y="509.5" as="targetPoint" />
          </mxGeometry>
        </mxCell>
        <mxCell id="Eaa78CnwqytOTovNMyEG-5" value="Not processed within 10 days" style="rounded=1;whiteSpace=wrap;html=1;" vertex="1" parent="1">
          <mxGeometry x="170" y="480" width="120" height="60" as="geometry" />
        </mxCell>
        <mxCell id="Eaa78CnwqytOTovNMyEG-9" value="" style="endArrow=classic;html=1;rounded=0;entryX=0;entryY=0.5;entryDx=0;entryDy=0;" edge="1" parent="1" target="Ko_cZbUgDAaaJvn7NovW-1">
          <mxGeometry width="50" height="50" relative="1" as="geometry">
            <mxPoint x="230" y="100" as="sourcePoint" />
            <mxPoint x="280" y="50" as="targetPoint" />
          </mxGeometry>
        </mxCell>
        <mxCell id="Eaa78CnwqytOTovNMyEG-10" value="Inform" style="rounded=1;whiteSpace=wrap;html=1;" vertex="1" parent="1">
          <mxGeometry x="170" y="300" width="120" height="60" as="geometry" />
        </mxCell>
        <mxCell id="Eaa78CnwqytOTovNMyEG-11" value="" style="endArrow=classic;html=1;rounded=0;" edge="1" parent="1">
          <mxGeometry width="50" height="50" relative="1" as="geometry">
            <mxPoint x="230" y="480" as="sourcePoint" />
            <mxPoint x="230" y="360" as="targetPoint" />
          </mxGeometry>
        </mxCell>
        <mxCell id="Eaa78CnwqytOTovNMyEG-12" value="" style="endArrow=none;html=1;rounded=0;exitX=0.5;exitY=0;exitDx=0;exitDy=0;" edge="1" parent="1" source="Eaa78CnwqytOTovNMyEG-10">
          <mxGeometry width="50" height="50" relative="1" as="geometry">
            <mxPoint x="230" y="270" as="sourcePoint" />
            <mxPoint x="230" y="100" as="targetPoint" />
          </mxGeometry>
        </mxCell>
        <mxCell id="Eaa78CnwqytOTovNMyEG-13" value="" style="ellipse;whiteSpace=wrap;html=1;aspect=fixed;" vertex="1" parent="1">
          <mxGeometry x="320" y="495" width="30" height="30" as="geometry" />
        </mxCell>
        <mxCell id="Eaa78CnwqytOTovNMyEG-14" value="Request&lt;br&gt;closed" style="ellipse;whiteSpace=wrap;html=1;aspect=fixed;" vertex="1" parent="1">
          <mxGeometry x="510" y="1460" width="80" height="80" as="geometry" />
        </mxCell>
        <mxCell id="Eaa78CnwqytOTovNMyEG-16" value="Rejected" style="rounded=1;whiteSpace=wrap;html=1;" vertex="1" parent="1">
          <mxGeometry x="590" y="1230" width="120" height="60" as="geometry" />
        </mxCell>
        <mxCell id="Eaa78CnwqytOTovNMyEG-17" value="" style="endArrow=classic;html=1;rounded=0;entryX=0;entryY=0.5;entryDx=0;entryDy=0;exitX=0.5;exitY=1;exitDx=0;exitDy=0;" edge="1" parent="1" source="Eaa78CnwqytOTovNMyEG-2" target="Eaa78CnwqytOTovNMyEG-14">
          <mxGeometry width="50" height="50" relative="1" as="geometry">
            <mxPoint x="400" y="1430" as="sourcePoint" />
            <mxPoint x="450" y="1380" as="targetPoint" />
            <Array as="points">
              <mxPoint x="430" y="1500" />
            </Array>
          </mxGeometry>
        </mxCell>
        <mxCell id="Eaa78CnwqytOTovNMyEG-18" value="" style="endArrow=classic;html=1;rounded=0;entryX=1;entryY=0.5;entryDx=0;entryDy=0;" edge="1" parent="1" target="Eaa78CnwqytOTovNMyEG-14">
          <mxGeometry width="50" height="50" relative="1" as="geometry">
            <mxPoint x="649.5" y="1290" as="sourcePoint" />
            <mxPoint x="649.5" y="1510" as="targetPoint" />
            <Array as="points">
              <mxPoint x="650" y="1500" />
            </Array>
          </mxGeometry>
        </mxCell>
      </root>
    </mxGraphModel>
  </diagram>
</mxfile>
